<svg width="44" height="54" viewBox="0 0 44 54" fill="none" xmlns="http://www.w3.org/2000/svg">
<mask id="path-1-outside-1_645_1925" maskUnits="userSpaceOnUse" x="0.5" y="0.147461" width="44" height="53" fill="black">
<rect fill="white" x="0.5" y="0.147461" width="44" height="53"/>
<path d="M1.85582 43.1986V34.722L23.1094 1.23837H30.4176V12.9713H26.0923L12.6939 34.1752V34.5729H42.8963V43.1986H1.85582ZM26.2912 52.1475V40.6134L26.4901 36.8598V1.23837H36.5824V52.1475H26.2912Z"/>
</mask>
<path d="M1.85582 43.1986H0.855824V44.1986H1.85582V43.1986ZM1.85582 34.722L1.01154 34.1861L0.855824 34.4315V34.722H1.85582ZM23.1094 1.23837V0.238369H22.5597L22.2651 0.702467L23.1094 1.23837ZM30.4176 1.23837H31.4176V0.238369H30.4176V1.23837ZM30.4176 12.9713V13.9713H31.4176V12.9713H30.4176ZM26.0923 12.9713V11.9713H25.5413L25.247 12.4371L26.0923 12.9713ZM12.6939 34.1752L11.8485 33.641L11.6939 33.8857V34.1752H12.6939ZM12.6939 34.5729H11.6939V35.5729H12.6939V34.5729ZM42.8963 34.5729H43.8963V33.5729H42.8963V34.5729ZM42.8963 43.1986V44.1986H43.8963V43.1986H42.8963ZM26.2912 52.1475H25.2912V53.1475H26.2912V52.1475ZM26.2912 40.6134L25.2926 40.5605L25.2912 40.5869V40.6134H26.2912ZM26.4901 36.8598L27.4887 36.9127L27.4901 36.8863V36.8598H26.4901ZM26.4901 1.23837V0.238369H25.4901V1.23837H26.4901ZM36.5824 1.23837H37.5824V0.238369H36.5824V1.23837ZM36.5824 52.1475V53.1475H37.5824V52.1475H36.5824ZM1.85582 43.1986H2.85582V34.722H1.85582H0.855824V43.1986H1.85582ZM1.85582 34.722L2.7001 35.2579L23.9537 1.77427L23.1094 1.23837L22.2651 0.702467L1.01154 34.1861L1.85582 34.722ZM23.1094 1.23837V2.23837H30.4176V1.23837V0.238369H23.1094V1.23837ZM30.4176 1.23837H29.4176V12.9713H30.4176H31.4176V1.23837H30.4176ZM30.4176 12.9713V11.9713H26.0923V12.9713V13.9713H30.4176V12.9713ZM26.0923 12.9713L25.247 12.4371L11.8485 33.641L12.6939 34.1752L13.5393 34.7093L26.9377 13.5055L26.0923 12.9713ZM12.6939 34.1752H11.6939V34.5729H12.6939H13.6939V34.1752H12.6939ZM12.6939 34.5729V35.5729H42.8963V34.5729V33.5729H12.6939V34.5729ZM42.8963 34.5729H41.8963V43.1986H42.8963H43.8963V34.5729H42.8963ZM42.8963 43.1986V42.1986H1.85582V43.1986V44.1986H42.8963V43.1986ZM26.2912 52.1475H27.2912V40.6134H26.2912H25.2912V52.1475H26.2912ZM26.2912 40.6134L27.2898 40.6663L27.4887 36.9127L26.4901 36.8598L25.4915 36.8069L25.2926 40.5605L26.2912 40.6134ZM26.4901 36.8598H27.4901V1.23837H26.4901H25.4901V36.8598H26.4901ZM26.4901 1.23837V2.23837H36.5824V1.23837V0.238369H26.4901V1.23837ZM36.5824 1.23837H35.5824V52.1475H36.5824H37.5824V1.23837H36.5824ZM36.5824 52.1475V51.1475H26.2912V52.1475V53.1475H36.5824V52.1475Z" fill="#DD80FF" mask="url(#path-1-outside-1_645_1925)"/>
</svg>
