<svg width="32" height="31" viewBox="0 0 32 31" fill="none" xmlns="http://www.w3.org/2000/svg">
<path d="M13.5223 29.3736C15.2232 31.0744 16.7767 31.0611 18.4643 29.3736L20.5267 27.3245C20.741 27.1236 20.9285 27.0432 21.2098 27.0432H24.1026C26.4999 27.0432 27.6116 25.945 27.6116 23.5343V20.6414C27.6116 20.3602 27.6919 20.1727 27.8927 19.9584L29.9284 17.8959C31.6427 16.2084 31.6293 14.6549 29.9284 12.9539L27.8927 10.8914C27.6919 10.6905 27.6116 10.4896 27.6116 10.2218V7.31554C27.6116 4.93159 26.5134 3.80662 24.1026 3.80662H21.2098C20.9285 3.80662 20.741 3.73965 20.5267 3.53874L18.4643 1.48965C16.7767 -0.211265 15.2232 -0.197837 13.5223 1.48965L11.4598 3.53874C11.2589 3.73965 11.058 3.80662 10.7901 3.80662H7.88387C5.48656 3.80662 4.37496 4.90485 4.37496 7.31554V10.2218C4.37496 10.4896 4.30799 10.6905 4.10713 10.8914L2.05799 12.9539C0.35713 14.6549 0.370501 16.2084 2.05799 17.8959L4.10713 19.9584C4.30799 20.1727 4.37496 20.3602 4.37496 20.6414V23.5343C4.37496 25.9316 5.48656 27.0432 7.88387 27.0432H10.7901C11.058 27.0432 11.2589 27.1236 11.4598 27.3245L13.5223 29.3736ZM15.0223 27.8735L12.5044 25.3423C12.2098 25.0343 11.9018 24.9138 11.4866 24.9138H7.88387C6.69193 24.9138 6.50439 24.7262 6.50439 23.5343V19.9316C6.50439 19.5298 6.38387 19.2218 6.08924 18.9271L3.55799 16.4092C2.71427 15.5521 2.71427 15.3111 3.55799 14.4539L6.08924 11.9361C6.38387 11.6414 6.50439 11.3334 6.50439 10.9182V7.31554C6.50439 6.11016 6.67856 5.93611 7.88387 5.93611H11.4866C11.9018 5.93611 12.2098 5.82891 12.5044 5.52091L15.0223 2.98965C15.8794 2.14588 16.1205 2.14588 16.9776 2.98965L19.4955 5.52091C19.7901 5.82891 20.0982 5.93611 20.4999 5.93611H24.1026C25.2946 5.93611 25.4821 6.12354 25.4821 7.31554V10.9182C25.4821 11.3334 25.616 11.6414 25.9107 11.9361L28.4418 14.4539C29.2855 15.3111 29.2855 15.5521 28.4418 16.4092L25.9107 18.9271C25.616 19.2218 25.4821 19.5298 25.4821 19.9316V23.5343C25.4821 24.7262 25.2946 24.9138 24.1026 24.9138H20.4999C20.0982 24.9138 19.7901 25.0343 19.4955 25.3423L16.9776 27.8735C16.1205 28.7173 15.8794 28.7173 15.0223 27.8735ZM13.9107 21.8468C14.2991 21.8468 14.5937 21.6861 14.7946 21.445L22.2276 11.0522C22.375 10.8378 22.4553 10.5968 22.4553 10.3691C22.4553 9.77982 22 9.31108 21.3839 9.31108C20.9419 9.31108 20.7008 9.45839 20.433 9.84679L13.8705 19.0879L10.4821 15.3512C10.2544 15.0968 9.99999 14.9896 9.66513 14.9896C9.0089 14.9896 8.54016 15.4316 8.54016 16.0477C8.54016 16.3155 8.63387 16.57 8.82142 16.7575L13.0803 21.4986C13.2812 21.7129 13.5357 21.8468 13.9107 21.8468Z" fill="black"/>
</svg>
