<svg width="64" height="65" viewBox="0 0 64 65" fill="none" xmlns="http://www.w3.org/2000/svg">
<path d="M29.5223 46.3736C31.2232 48.0744 32.7767 48.0611 34.4643 46.3736L36.5267 44.3245C36.741 44.1236 36.9285 44.0432 37.2098 44.0432H40.1026C42.4999 44.0432 43.6116 42.945 43.6116 40.5343V37.6414C43.6116 37.3602 43.6919 37.1727 43.8927 36.9584L45.9284 34.8959C47.6427 33.2084 47.6293 31.6549 45.9284 29.9539L43.8927 27.8914C43.6919 27.6905 43.6116 27.4896 43.6116 27.2218V24.3155C43.6116 21.9316 42.5134 20.8066 40.1026 20.8066H37.2098C36.9285 20.8066 36.741 20.7396 36.5267 20.5387L34.4643 18.4896C32.7767 16.7887 31.2232 16.8022 29.5223 18.4896L27.4598 20.5387C27.2589 20.7396 27.058 20.8066 26.7901 20.8066H23.8839C21.4866 20.8066 20.375 21.9048 20.375 24.3155V27.2218C20.375 27.4896 20.308 27.6905 20.1071 27.8914L18.058 29.9539C16.3571 31.6549 16.3705 33.2084 18.058 34.8959L20.1071 36.9584C20.308 37.1727 20.375 37.3602 20.375 37.6414V40.5343C20.375 42.9316 21.4866 44.0432 23.8839 44.0432H26.7901C27.058 44.0432 27.2589 44.1236 27.4598 44.3245L29.5223 46.3736ZM31.0223 44.8735L28.5044 42.3423C28.2098 42.0343 27.9018 41.9138 27.4866 41.9138H23.8839C22.6919 41.9138 22.5044 41.7262 22.5044 40.5343V36.9316C22.5044 36.5298 22.3839 36.2218 22.0892 35.9271L19.558 33.4092C18.7143 32.5521 18.7143 32.3111 19.558 31.4539L22.0892 28.9361C22.3839 28.6414 22.5044 28.3334 22.5044 27.9182V24.3155C22.5044 23.1102 22.6786 22.9361 23.8839 22.9361H27.4866C27.9018 22.9361 28.2098 22.8289 28.5044 22.5209L31.0223 19.9896C31.8794 19.1459 32.1205 19.1459 32.9776 19.9896L35.4955 22.5209C35.7901 22.8289 36.0982 22.9361 36.4999 22.9361H40.1026C41.2946 22.9361 41.4821 23.1235 41.4821 24.3155V27.9182C41.4821 28.3334 41.616 28.6414 41.9107 28.9361L44.4418 31.4539C45.2855 32.3111 45.2855 32.5521 44.4418 33.4092L41.9107 35.9271C41.616 36.2218 41.4821 36.5298 41.4821 36.9316V40.5343C41.4821 41.7262 41.2946 41.9138 40.1026 41.9138H36.4999C36.0982 41.9138 35.7901 42.0343 35.4955 42.3423L32.9776 44.8735C32.1205 45.7173 31.8794 45.7173 31.0223 44.8735ZM29.9107 38.8468C30.2991 38.8468 30.5937 38.6861 30.7946 38.445L38.2276 28.0522C38.375 27.8378 38.4553 27.5968 38.4553 27.3691C38.4553 26.7798 38 26.3111 37.3839 26.3111C36.9419 26.3111 36.7008 26.4584 36.433 26.8468L29.8705 36.0879L26.4821 32.3512C26.2544 32.0968 26 31.9896 25.6651 31.9896C25.0089 31.9896 24.5402 32.4316 24.5402 33.0477C24.5402 33.3155 24.6339 33.57 24.8214 33.7575L29.0803 38.4986C29.2812 38.7129 29.5357 38.8468 29.9107 38.8468Z" fill="black"/>
</svg>
