<svg width="65" height="65" viewBox="0 0 65 65" fill="none" xmlns="http://www.w3.org/2000/svg">
<path fill-rule="evenodd" clip-rule="evenodd" d="M48.5 38.7394C46.17 39.5634 44.5 41.7874 44.5 44.3974C44.5 47.0074 46.17 49.2313 48.5 50.0554V54.3974C48.5 55.5014 49.396 56.3974 50.5 56.3974C51.604 56.3974 52.5 55.5014 52.5 54.3974V50.0554C54.83 49.2313 56.5 47.0074 56.5 44.3974C56.5 41.7874 54.83 39.5634 52.5 38.7394V10.3734C52.5 9.26935 51.604 8.37335 50.5 8.37335C49.396 8.37335 48.5 9.26935 48.5 10.3734V38.7394ZM50.5 42.3974C51.604 42.3974 52.5 43.2934 52.5 44.3974C52.5 45.5014 51.604 46.3974 50.5 46.3974C49.396 46.3974 48.5 45.5014 48.5 44.3974C48.5 43.2934 49.396 42.3974 50.5 42.3974Z" fill="white" stroke="white" stroke-width="0.00064" stroke-miterlimit="2" stroke-linejoin="round"/>
<path fill-rule="evenodd" clip-rule="evenodd" d="M30.512 14.7154C28.184 15.5394 26.512 17.7614 26.512 20.3734C26.512 22.9834 28.184 25.2074 30.512 26.0314V54.3974C30.512 55.5014 31.408 56.3974 32.512 56.3974C33.616 56.3974 34.512 55.5014 34.512 54.3974V26.0314C36.842 25.2074 38.512 22.9834 38.512 20.3734C38.512 17.7614 36.842 15.5394 34.512 14.7154V10.3734C34.512 9.26935 33.616 8.37335 32.512 8.37335C31.408 8.37335 30.512 9.26935 30.512 10.3734V14.7154ZM32.512 22.3734C31.408 22.3734 30.512 21.4774 30.512 20.3734C30.512 19.2694 31.408 18.3734 32.512 18.3734C33.616 18.3734 34.512 19.2694 34.512 20.3734C34.512 21.4774 33.616 22.3734 32.512 22.3734Z" fill="white" stroke="white" stroke-width="0.00064" stroke-miterlimit="2" stroke-linejoin="round"/>
<path fill-rule="evenodd" clip-rule="evenodd" d="M12.5001 38.7494C10.1861 39.5814 8.52808 41.7974 8.52808 44.3974C8.52808 46.9974 10.1861 49.2133 12.5001 50.0453V54.3974C12.5001 55.5014 13.3961 56.3974 14.5001 56.3974C15.6041 56.3974 16.5001 55.5014 16.5001 54.3974V50.0654C18.8441 49.2494 20.5281 47.0174 20.5281 44.3974C20.5281 41.7774 18.8441 39.5454 16.5001 38.7294V10.3734C16.5001 9.26935 15.6041 8.37335 14.5001 8.37335C13.3961 8.37335 12.5001 9.26935 12.5001 10.3734V38.7494ZM14.5281 46.3974C13.4241 46.3974 12.5281 45.5014 12.5281 44.3974C12.5281 43.2934 13.4241 42.3974 14.5281 42.3974C15.6321 42.3974 16.5281 43.2934 16.5281 44.3974C16.5281 45.5014 15.6321 46.3974 14.5281 46.3974Z" fill="white" stroke="white" stroke-width="0.00064" stroke-miterlimit="2" stroke-linejoin="round"/>
</svg>
