<svg width="12" height="8" viewBox="0 0 12 8" fill="none" xmlns="http://www.w3.org/2000/svg">
<path d="M4.58333 4C4.58333 4.30942 4.70625 4.60617 4.92504 4.82496C5.14384 5.04375 5.44058 5.16667 5.75 5.16667C6.05942 5.16667 6.35617 5.04375 6.57496 4.82496C6.79375 4.60617 6.91667 4.30942 6.91667 4C6.91667 3.69058 6.79375 3.39383 6.57496 3.17504C6.35617 2.95625 6.05942 2.83333 5.75 2.83333C5.44058 2.83333 5.14384 2.95625 4.92504 3.17504C4.70625 3.39383 4.58333 3.69058 4.58333 4Z" stroke="currentColor" stroke-linecap="round" stroke-linejoin="round"/>
<path d="M11 4C9.6 6.33333 7.85 7.5 5.75 7.5C3.65 7.5 1.9 6.33333 0.5 4C1.9 1.66667 3.65 0.5 5.75 0.5C7.85 0.5 9.6 1.66667 11 4Z" stroke="currentColor" stroke-linecap="round" stroke-linejoin="round"/>
</svg>
