<svg width="65" height="65" viewBox="0 0 65 65" fill="none" xmlns="http://www.w3.org/2000/svg">
<path d="M31.1762 5.06895L16.8455 19.3996L45.488 48.0422L59.8187 33.7115L31.1762 5.06895Z" stroke="white" stroke-width="5.2" stroke-miterlimit="10"/>
<path d="M35.1668 37.7307L13.2734 59.4373C12.7662 59.9623 12.1565 60.3776 11.4822 60.6574C10.8079 60.9372 10.0834 61.0756 9.35344 61.064C7.88944 61.064 6.48541 60.4824 5.45021 59.4472C4.415 58.412 3.83344 57.008 3.83344 55.544C3.82185 54.8141 3.96025 54.0895 4.24005 53.4152C4.51986 52.7409 4.93511 52.1313 5.4601 51.624L27.1668 29.7307L35.1668 37.7307Z" stroke="white" stroke-width="5.2" stroke-miterlimit="10"/>
<path d="M54.9268 15.4907C54.9307 16.2132 54.7912 16.9292 54.5166 17.5975C54.242 18.2658 53.8376 18.873 53.3268 19.384L49.4068 23.304L41.5935 15.4907L45.5135 11.5707C46.287 10.8011 47.2713 10.278 48.3419 10.0675C49.4126 9.85695 50.5216 9.96848 51.5289 10.388C52.5362 10.8074 53.3966 11.516 54.0014 12.4242C54.6062 13.3324 54.9282 14.3995 54.9268 15.4907Z" stroke="white" stroke-width="5.2" stroke-miterlimit="10"/>
</svg>
