<svg width="14" height="14" viewBox="0 0 14 14" fill="none" xmlns="http://www.w3.org/2000/svg">
<g clip-path="url(#clip0_785_1736)">
<path d="M1.75 4.08341C1.75 3.774 1.87292 3.47725 2.09171 3.25846C2.3105 3.03966 2.60725 2.91675 2.91667 2.91675H11.0833C11.3928 2.91675 11.6895 3.03966 11.9083 3.25846C12.1271 3.47725 12.25 3.774 12.25 4.08341V9.91675C12.25 10.2262 12.1271 10.5229 11.9083 10.7417C11.6895 10.9605 11.3928 11.0834 11.0833 11.0834H2.91667C2.60725 11.0834 2.3105 10.9605 2.09171 10.7417C1.87292 10.5229 1.75 10.2262 1.75 9.91675V4.08341Z" stroke="currentColor" stroke-linecap="round" stroke-linejoin="round"/>
<path d="M1.75 4.08325L7 7.58325L12.25 4.08325" stroke="currentColor" stroke-linecap="round" stroke-linejoin="round"/>
</g>
<defs>
<clipPath id="clip0_785_1736">
<rect width="14" height="14" fill="white"/>
</clipPath>
</defs>
</svg>
