<svg width="64" height="65" viewBox="0 0 64 65" fill="none" xmlns="http://www.w3.org/2000/svg">
<path d="M47.4699 33.5417C46.4609 32.8708 45.2425 32.5892 44.0414 32.7493C42.8403 32.9093 41.7382 33.5 40.9399 34.4117L37.7399 38.0617C37.46 37.2937 36.9514 36.6299 36.2827 36.1597C35.6141 35.6894 34.8174 35.4354 33.9999 35.4317H33.0699C32.5678 35.4309 32.0771 35.2812 31.6599 35.0017C29.8574 33.8027 27.6955 33.2642 25.5412 33.4774C23.3868 33.6907 21.3725 34.6426 19.8399 36.1717L16.2899 39.7217C16.1016 39.91 15.9958 40.1654 15.9958 40.4317C15.9958 40.698 16.1016 40.9534 16.2899 41.1417C16.4782 41.33 16.7336 41.4358 16.9999 41.4358C17.2662 41.4358 17.5216 41.33 17.7099 41.1417L21.2599 37.5917C22.4622 36.386 24.0458 35.6352 25.7401 35.4674C27.4345 35.2996 29.1346 35.7253 30.5499 36.6717C31.2959 37.1694 32.1731 37.434 33.0699 37.4317H33.9999C34.5304 37.4317 35.0391 37.6424 35.4142 38.0175C35.7892 38.3925 35.9999 38.9012 35.9999 39.4317H28.9999C28.7347 39.4317 28.4804 39.537 28.2928 39.7246C28.1053 39.9121 27.9999 40.1665 27.9999 40.4317C27.9999 40.6969 28.1053 40.9513 28.2928 41.1388C28.4804 41.3263 28.7347 41.4317 28.9999 41.4317H36.9999C37.141 41.4288 37.2799 41.3962 37.4074 41.3359C37.5349 41.2755 37.6483 41.1889 37.7399 41.0817L42.4299 35.7217C42.7963 35.3064 43.2706 35.0006 43.8001 34.8382C44.3296 34.6758 44.8937 34.6632 45.4299 34.8017L38.3999 44.2317C38.1205 44.6043 37.7581 44.9067 37.3416 45.115C36.925 45.3232 36.4657 45.4317 35.9999 45.4317H27.4099C26.8306 45.4307 26.2567 45.5442 25.7213 45.7655C25.1859 45.9869 24.6995 46.3118 24.2899 46.7217C24.1962 46.8146 24.1218 46.9252 24.071 47.0471C24.0203 47.169 23.9941 47.2997 23.9941 47.4317C23.9941 47.5637 24.0203 47.6944 24.071 47.8163C24.1218 47.9381 24.1962 48.0487 24.2899 48.1417C24.3829 48.2354 24.4935 48.3098 24.6154 48.3606C24.7372 48.4113 24.8679 48.4375 24.9999 48.4375C25.132 48.4375 25.2627 48.4113 25.3845 48.3606C25.5064 48.3098 25.617 48.2354 25.7099 48.1417C25.9316 47.9158 26.1962 47.7367 26.4881 47.6147C26.7801 47.4928 27.0935 47.4306 27.4099 47.4317H35.9999C36.7762 47.4317 37.5417 47.251 38.236 46.9038C38.9303 46.5567 39.5342 46.0527 39.9999 45.4317L47.7999 35.0317C47.9504 34.794 48.0041 34.5077 47.9499 34.2317C47.8818 33.9498 47.7106 33.7036 47.4699 33.5417Z" fill="black"/>
<path d="M36 32.4316C37.5823 32.4316 39.129 31.9625 40.4446 31.0834C41.7602 30.2044 42.7855 28.9549 43.391 27.4931C43.9965 26.0313 44.155 24.4228 43.8463 22.8709C43.5376 21.3191 42.7757 19.8936 41.6569 18.7748C40.538 17.656 39.1126 16.894 37.5607 16.5854C36.0089 16.2767 34.4003 16.4351 32.9385 17.0406C31.4767 17.6461 30.2273 18.6715 29.3482 19.9871C28.4692 21.3027 28 22.8494 28 24.4316C28 26.5534 28.8429 28.5882 30.3431 30.0885C31.8434 31.5888 33.8783 32.4316 36 32.4316ZM36 18.4316C37.1867 18.4316 38.3467 18.7835 39.3334 19.4428C40.3201 20.1021 41.0892 21.0392 41.5433 22.1355C41.9974 23.2319 42.1162 24.4383 41.8847 25.6022C41.6532 26.7661 41.0818 27.8352 40.2426 28.6743C39.4035 29.5134 38.3344 30.0848 37.1705 30.3164C36.0067 30.5479 34.8003 30.429 33.7039 29.9749C32.6075 29.5208 31.6705 28.7518 31.0112 27.7651C30.3519 26.7784 30 25.6183 30 24.4316C30 22.8403 30.6321 21.3142 31.7574 20.189C32.8826 19.0638 34.4087 18.4316 36 18.4316Z" fill="black"/>
<path d="M35.2899 27.9716C35.3828 28.0654 35.4934 28.1397 35.6153 28.1905C35.7371 28.2413 35.8678 28.2674 35.9999 28.2674C36.1319 28.2674 36.2626 28.2413 36.3844 28.1905C36.5063 28.1397 36.6169 28.0654 36.7099 27.9716L39.5399 25.1416C39.6336 25.0487 39.708 24.9381 39.7588 24.8162C39.8095 24.6943 39.8357 24.5636 39.8357 24.4316C39.8357 24.2996 39.8095 24.1689 39.7588 24.047C39.708 23.9252 39.6336 23.8146 39.5399 23.7216L36.7099 20.8916C36.6169 20.7979 36.5063 20.7235 36.3844 20.6727C36.2626 20.622 36.1319 20.5958 35.9999 20.5958C35.8678 20.5958 35.7371 20.622 35.6153 20.6727C35.4934 20.7235 35.3828 20.7979 35.2899 20.8916L32.4599 23.7216C32.3661 23.8146 32.2917 23.9252 32.241 24.047C32.1902 24.1689 32.1641 24.2996 32.1641 24.4316C32.1641 24.5636 32.1902 24.6943 32.241 24.8162C32.2917 24.9381 32.3661 25.0487 32.4599 25.1416L35.2899 27.9716ZM35.9999 23.0216L37.4099 24.4316L35.9999 25.8416L34.5899 24.4316L35.9999 23.0216Z" fill="black"/>
<path d="M21 21.4316H22V22.4316C22 22.6969 22.1054 22.9512 22.2929 23.1387C22.4804 23.3263 22.7348 23.4316 23 23.4316C23.2652 23.4316 23.5196 23.3263 23.7071 23.1387C23.8946 22.9512 24 22.6969 24 22.4316V21.4316H25C25.2652 21.4316 25.5196 21.3263 25.7071 21.1387C25.8946 20.9512 26 20.6969 26 20.4316C26 20.1664 25.8946 19.9121 25.7071 19.7245C25.5196 19.537 25.2652 19.4316 25 19.4316H24V18.4316C24 18.1664 23.8946 17.9121 23.7071 17.7245C23.5196 17.537 23.2652 17.4316 23 17.4316C22.7348 17.4316 22.4804 17.537 22.2929 17.7245C22.1054 17.9121 22 18.1664 22 18.4316V19.4316H21C20.7348 19.4316 20.4804 19.537 20.2929 19.7245C20.1054 19.9121 20 20.1664 20 20.4316C20 20.6969 20.1054 20.9512 20.2929 21.1387C20.4804 21.3263 20.7348 21.4316 21 21.4316Z" fill="black"/>
</svg>
