<svg width="65" height="65" viewBox="0 0 65 65" fill="none" xmlns="http://www.w3.org/2000/svg">
<path d="M21.8335 28.3973C21.8335 30.6064 20.0426 32.3973 17.8335 32.3973C15.6243 32.3973 13.8335 30.6064 13.8335 28.3973C13.8335 26.1882 15.6243 24.3973 17.8335 24.3973C20.0426 24.3973 21.8335 26.1882 21.8335 28.3973Z" fill="white"/>
<path d="M28.5 21.7307C30.7091 21.7307 32.5 19.9398 32.5 17.7307C32.5 15.5215 30.7091 13.7307 28.5 13.7307C26.2909 13.7307 24.5 15.5215 24.5 17.7307C24.5 19.9398 26.2909 21.7307 28.5 21.7307Z" fill="white"/>
<path d="M45.8335 17.7307C45.8335 19.9398 44.0426 21.7307 41.8335 21.7307C39.6244 21.7307 37.8335 19.9398 37.8335 17.7307C37.8335 15.5215 39.6244 13.7307 41.8335 13.7307C44.0426 13.7307 45.8335 15.5215 45.8335 17.7307Z" fill="white"/>
<path d="M20.5 45.7307C22.7091 45.7307 24.5 43.9397 24.5 41.7307C24.5 39.5216 22.7091 37.7307 20.5 37.7307C18.2909 37.7307 16.5 39.5216 16.5 41.7307C16.5 43.9397 18.2909 45.7307 20.5 45.7307Z" fill="white"/>
<path fill-rule="evenodd" clip-rule="evenodd" d="M3.16675 32.3973C3.16675 16.197 16.2997 3.064 32.5001 3.064C48.4233 3.064 61.8334 14.6619 61.8334 29.7307V29.7696C61.8334 31.1787 61.8337 33.5861 60.9868 36.3939C58.7673 43.7507 50.6875 45.7211 44.4862 44.1371C43.1961 43.8075 41.8982 43.4507 40.6516 43.0925C38.5033 42.4749 36.5473 44.3699 36.943 46.348L37.7899 50.5832L38.0956 52.4155C38.8876 57.168 35.1718 62.0013 29.8774 61.3301C20.9006 60.192 14.1529 56.6659 9.66261 51.4184C5.186 46.1867 3.16675 39.4941 3.16675 32.3973ZM32.5001 8.39733C19.2453 8.39733 8.50008 19.1425 8.50008 32.3973C8.50008 38.4917 10.2247 43.872 13.7149 47.9509C17.1914 52.0136 22.6334 55.0357 30.5483 56.0392C31.7926 56.1971 33.1262 55.0413 32.8347 53.2923L32.5435 51.5448L31.7131 47.3939C30.4913 41.284 36.3462 36.3059 42.1249 37.9667C43.3318 38.3136 44.5774 38.6557 45.806 38.9696C50.5686 40.1861 54.8318 38.3304 55.8806 34.8533C56.4921 32.8267 56.5001 31.0797 56.5001 29.7307C56.5001 18.1328 46.0321 8.39733 32.5001 8.39733Z" fill="white"/>
</svg>
