<svg width="64" height="65" viewBox="0 0 64 65" fill="none" xmlns="http://www.w3.org/2000/svg">
<path d="M39.9999 25.9783C39.9199 25.9649 39.8266 25.9649 39.7466 25.9783C37.9066 25.9116 36.4399 24.4049 36.4399 22.5383C36.4399 20.6316 37.9733 19.0983 39.8799 19.0983C41.7866 19.0983 43.3199 20.6449 43.3199 22.5383C43.3066 24.4049 41.8399 25.9116 39.9999 25.9783Z" stroke="#292D32" stroke-width="2" stroke-linecap="round" stroke-linejoin="round"/>
<path d="M38.6264 35.685C40.4531 35.9916 42.4664 35.6716 43.8798 34.725C45.7598 33.4716 45.7598 31.4183 43.8798 30.165C42.4531 29.2184 40.4131 28.8984 38.5864 29.2184" stroke="#292D32" stroke-width="2" stroke-linecap="round" stroke-linejoin="round"/>
<path d="M23.9599 25.9783C24.0399 25.9649 24.1332 25.9649 24.2132 25.9783C26.0532 25.9116 27.5199 24.4049 27.5199 22.5383C27.5199 20.6316 25.9866 19.0983 24.0799 19.0983C22.1732 19.0983 20.6399 20.6449 20.6399 22.5383C20.6532 24.4049 22.1199 25.9116 23.9599 25.9783Z" stroke="#292D32" stroke-width="2" stroke-linecap="round" stroke-linejoin="round"/>
<path d="M25.3333 35.685C23.5066 35.9916 21.4933 35.6716 20.0799 34.725C18.1999 33.4716 18.1999 31.4183 20.0799 30.165C21.5066 29.2184 23.5466 28.8984 25.3733 29.2184" stroke="#292D32" stroke-width="2" stroke-linecap="round" stroke-linejoin="round"/>
<path d="M32 35.9383C31.92 35.9249 31.8267 35.9249 31.7467 35.9383C29.9067 35.8716 28.4399 34.3649 28.4399 32.4983C28.4399 30.5916 29.9733 29.0582 31.88 29.0582C33.7867 29.0582 35.32 30.6049 35.32 32.4983C35.3067 34.3649 33.84 35.8849 32 35.9383Z" stroke="#292D32" stroke-width="2" stroke-linecap="round" stroke-linejoin="round"/>
<path d="M28.12 40.1382C26.24 41.3916 26.24 43.4449 28.12 44.6982C30.2533 46.1249 33.7467 46.1249 35.88 44.6982C37.76 43.4449 37.76 41.3916 35.88 40.1382C33.76 38.7249 30.2533 38.7249 28.12 40.1382Z" stroke="#292D32" stroke-width="2" stroke-linecap="round" stroke-linejoin="round"/>
</svg>
