<svg width="65" height="65" viewBox="0 0 65 65" fill="none" xmlns="http://www.w3.org/2000/svg">
<path d="M54.875 8.27234H41.9875C40.9 8.27234 39.9312 9.01609 39.675 10.1036C38.8937 13.4036 35.9375 15.7723 32.5 15.7723C29.0625 15.7723 26.1063 13.4036 25.325 10.1036C25.2031 9.58199 24.9082 9.11703 24.4883 8.78449C24.0683 8.45195 23.5482 8.27143 23.0125 8.27234H10.125C9.39565 8.27234 8.69618 8.56207 8.18046 9.0778C7.66473 9.59352 7.375 10.293 7.375 11.0223V26.7723C7.375 27.5017 7.66473 28.2012 8.18046 28.7169C8.69618 29.2326 9.39565 29.5223 10.125 29.5223H14.8125V53.7723C14.8125 54.5017 15.1022 55.2012 15.618 55.7169C16.1337 56.2326 16.8332 56.5223 17.5625 56.5223H47.4375C48.1668 56.5223 48.8663 56.2326 49.382 55.7169C49.8978 55.2012 50.1875 54.5017 50.1875 53.7723V29.5223H54.875C55.6043 29.5223 56.3038 29.2326 56.8195 28.7169C57.3353 28.2012 57.625 27.5017 57.625 26.7723V11.0223C57.625 10.293 57.3353 9.59352 56.8195 9.0778C56.3038 8.56207 55.6043 8.27234 54.875 8.27234ZM53.125 25.0223H45.6875V52.0223H19.3125V25.0223H11.875V12.7723H21.4562C23.2187 17.2223 27.55 20.2723 32.5 20.2723C37.45 20.2723 41.7812 17.2223 43.5438 12.7723H53.125V25.0223Z" fill="white" stroke="white" stroke-width="0.0625"/>
</svg>
