<svg width="16" height="16" viewBox="0 0 16 16" fill="none" xmlns="http://www.w3.org/2000/svg">
<g clip-path="url(#clip0_785_1728)">
<path d="M5.33334 4.66667C5.33334 5.37391 5.61429 6.05219 6.11439 6.55228C6.61449 7.05238 7.29277 7.33333 8.00001 7.33333C8.70725 7.33333 9.38553 7.05238 9.88563 6.55228C10.3857 6.05219 10.6667 5.37391 10.6667 4.66667C10.6667 3.95942 10.3857 3.28115 9.88563 2.78105C9.38553 2.28095 8.70725 2 8.00001 2C7.29277 2 6.61449 2.28095 6.11439 2.78105C5.61429 3.28115 5.33334 3.95942 5.33334 4.66667Z" stroke="currentColor" stroke-linecap="round" stroke-linejoin="round"/>
<path d="M4 14V12.6667C4 11.9594 4.28095 11.2811 4.78105 10.781C5.28115 10.281 5.95942 10 6.66667 10H9.33333C10.0406 10 10.7189 10.281 11.219 10.781C11.719 11.2811 12 11.9594 12 12.6667V14" stroke="currentColor" stroke-linecap="round" stroke-linejoin="round"/>
</g>
<defs>
<clipPath id="clip0_785_1728">
<rect width="16" height="16" fill="white"/>
</clipPath>
</defs>
</svg>
