<svg width="65" height="65" viewBox="0 0 65 65" fill="none" xmlns="http://www.w3.org/2000/svg">
<path d="M43.1667 27.064L50.0381 22.9411C52.1531 21.6721 53.2107 21.0376 54.0808 21.1187C54.8395 21.1894 55.5317 21.5813 55.9827 22.1956C56.5 22.9 56.5 24.1332 56.5 26.5997V38.1949C56.5 40.6613 56.5 41.8947 55.9827 42.5992C55.5317 43.2133 54.8395 43.6053 54.0808 43.676C53.2107 43.7571 52.1531 43.1227 50.0381 41.8536L43.1667 37.7307M17.0333 48.3973H34.6333C37.6203 48.3973 39.1139 48.3973 40.2547 47.816C41.2581 47.3048 42.0741 46.4888 42.5853 45.4853C43.1667 44.3445 43.1667 42.8509 43.1667 39.864V24.9307C43.1667 21.9437 43.1667 20.4502 42.5853 19.3094C42.0741 18.3058 41.2581 17.49 40.2547 16.9786C39.1139 16.3973 37.6203 16.3973 34.6333 16.3973H17.0333C14.0464 16.3973 12.5529 16.3973 11.4121 16.9786C10.4085 17.49 9.59261 18.3058 9.08131 19.3094C8.5 20.4502 8.5 21.9437 8.5 24.9307V39.864C8.5 42.8509 8.5 44.3445 9.08131 45.4853C9.59261 46.4888 10.4085 47.3048 11.4121 47.816C12.5529 48.3973 14.0464 48.3973 17.0333 48.3973Z" stroke="white" stroke-width="5.33333" stroke-linecap="round" stroke-linejoin="round"/>
</svg>
