<svg width="65" height="65" viewBox="0 0 65 65" fill="none" xmlns="http://www.w3.org/2000/svg">
<path fill-rule="evenodd" clip-rule="evenodd" d="M26.7353 49.5885C27.1941 50.4485 27.6536 51.2235 28.0928 51.9101C23.4265 50.8608 19.3775 48.1805 16.5757 44.4995C18.4248 43.4581 20.7932 42.3787 23.6404 41.5888C24.4497 44.7627 25.5913 47.4435 26.7353 49.5885ZM30.2648 47.7061C29.2709 45.8429 28.2749 43.516 27.5573 40.7589C29.1021 40.5296 30.7512 40.3973 32.5003 40.3973C34.2491 40.3973 35.8981 40.5296 37.4427 40.7587C36.7251 43.516 35.7291 45.8429 34.7352 47.7061C33.9384 49.2003 33.1445 50.3931 32.5 51.2659C31.8555 50.3931 31.0616 49.2003 30.2648 47.7061ZM26.5 32.3973C26.5 33.9549 26.6048 35.4333 26.7896 36.8291C28.5717 36.5557 30.4771 36.3973 32.5003 36.3973C34.5232 36.3973 36.4285 36.5555 38.2104 36.8291C38.3952 35.4331 38.5 33.9549 38.5 32.3973C38.5 30.8397 38.3952 29.3616 38.2104 27.9656C36.4285 28.2389 34.5232 28.3973 32.5003 28.3973C30.4771 28.3973 28.5717 28.2389 26.7896 27.9656C26.6048 29.3613 26.5 30.8397 26.5 32.3973ZM22.865 27.1408C22.6327 28.7915 22.5 30.5451 22.5 32.3973C22.5 34.2496 22.6327 36.0032 22.865 37.6539C19.469 38.5656 16.6569 39.8512 14.482 41.0883C13.2119 38.4603 12.5 35.512 12.5 32.3973C12.5 29.2827 13.2119 26.3345 14.4819 23.7063C16.6566 24.9432 19.4688 26.229 22.865 27.1408ZM27.5573 24.0359C29.1021 24.2651 30.7512 24.3973 32.5003 24.3973C34.2491 24.3973 35.8981 24.2651 37.4427 24.0359C36.7251 21.2788 35.7291 18.9518 34.7352 17.0885C33.9384 15.5945 33.1445 14.4015 32.5 13.5288C31.8555 14.4015 31.0616 15.5945 30.2648 17.0885C29.2709 18.9518 28.2749 21.2787 27.5573 24.0359ZM42.1349 27.1411C42.3672 28.7917 42.5 30.5453 42.5 32.3973C42.5 34.2496 42.3672 36.0029 42.1349 37.6536C45.5309 38.5656 48.3432 39.8512 50.5181 41.0883C51.788 38.46 52.5 35.5117 52.5 32.3973C52.5 29.2829 51.788 26.3346 50.5181 23.7065C48.3435 24.9434 45.5312 26.2291 42.1349 27.1411ZM48.4243 20.2954C46.5749 21.3368 44.2067 22.4161 41.3597 23.2061C40.5504 20.0321 39.4088 17.3512 38.2648 15.2062C37.8059 14.346 37.3464 13.5713 36.9072 12.8845C41.5736 13.9339 45.6227 16.6143 48.4243 20.2954ZM23.6404 23.206C20.7934 22.416 18.4251 21.3367 16.5757 20.2953C19.3775 16.6142 23.4265 13.9339 28.0925 12.8845C27.6536 13.5713 27.1941 14.346 26.7353 15.2061C25.5913 17.3511 24.4497 20.032 23.6404 23.206ZM41.3597 41.5885C40.5504 44.7627 39.4088 47.4435 38.2648 49.5885C37.8059 50.4485 37.3464 51.2235 36.9072 51.9101C41.5736 50.8608 45.6227 48.1803 48.4245 44.4992C46.5752 43.4579 44.2069 42.3787 41.3597 41.5885ZM32.5 56.3973C45.7549 56.3973 56.5 45.6523 56.5 32.3973C56.5 19.1425 45.7549 8.39732 32.5 8.39732C19.2452 8.39732 8.5 19.1425 8.5 32.3973C8.5 45.6523 19.2452 56.3973 32.5 56.3973Z" fill="white"/>
</svg>
