<svg width="195" height="46" viewBox="0 0 195 46" fill="none" xmlns="http://www.w3.org/2000/svg">
<path d="M5 33.4964V23.2594L20.8537 29.2773V12L5 16.9438" stroke="black" stroke-width="5.17673" stroke-linecap="round" stroke-linejoin="round"/>
<path d="M35.8794 25.2648C35.8794 21.1154 35.8794 14.6396 35.8794 14.6396M35.8794 25.2648C35.8841 28.3455 38.3787 30.8382 41.4618 30.8428C44.5496 30.8475 47.0565 28.3501 47.0611 25.2648C47.0658 22.1749 44.5542 19.6653 41.4618 19.67C38.3741 19.6746 35.8747 22.1795 35.8794 25.2648Z" stroke="black" stroke-width="5.17673" stroke-linecap="round" stroke-linejoin="round"/>
<path d="M111.874 25.2648C111.874 21.1154 111.874 14.6396 111.874 14.6396M111.874 25.2648C111.878 28.3455 114.373 30.8382 117.456 30.8428C120.544 30.8475 123.051 28.3501 123.055 25.2648C123.06 22.1749 120.548 19.6653 117.456 19.67C114.368 19.6746 111.869 22.1795 111.874 25.2648Z" stroke="black" stroke-width="5.17673" stroke-linecap="round" stroke-linejoin="round"/>
<path d="M191 25.2648C191 21.1154 191 14.6396 191 14.6396M191 25.2648C190.995 28.3455 188.501 30.8382 185.418 30.8428C182.33 30.8475 179.823 28.3501 179.818 25.2648C179.814 22.1749 182.325 19.6653 185.418 19.67C188.505 19.6746 191.005 22.1795 191 25.2648Z" stroke="black" stroke-width="5.17673" stroke-linecap="round" stroke-linejoin="round"/>
<path d="M53.3247 14.6396V25.2778C53.3247 25.2778 53.3247 30.8428 58.9156 30.8428" stroke="black" stroke-width="5.17673" stroke-linecap="round" stroke-linejoin="round"/>
<path d="M97.6636 14.6396V23.7248M97.6636 23.7248V30.8428M97.6636 23.7248L105.61 19.6611M97.6636 23.7248L105.61 30.8428" stroke="black" stroke-width="5.17673" stroke-linecap="round" stroke-linejoin="round"/>
<path d="M69.1136 30.8434C72.2013 30.8434 74.7044 28.3402 74.7044 25.2525C74.7044 22.1647 72.2013 19.6616 69.1136 19.6616C66.0258 19.6616 63.5227 22.1647 63.5227 25.2525C63.5227 28.3402 66.0258 30.8434 69.1136 30.8434Z" stroke="black" stroke-width="5.17673"/>
<path d="M134.91 30.8434C137.998 30.8434 140.501 28.3402 140.501 25.2525C140.501 22.1647 137.998 19.6616 134.91 19.6616C131.822 19.6616 129.319 22.1647 129.319 25.2525C129.319 28.3402 131.822 30.8434 134.91 30.8434Z" stroke="black" stroke-width="5.17673"/>
<path fill-rule="evenodd" clip-rule="evenodd" d="M149.353 25.2525C149.353 23.5942 150.697 22.25 152.356 22.25C154.011 22.25 155.353 23.5889 155.358 25.2425V25.2625C155.353 26.9161 154.011 28.255 152.356 28.255C150.697 28.255 149.353 26.9107 149.353 25.2525ZM156.017 32.5685C154.915 33.1209 153.672 33.4317 152.356 33.4317C147.838 33.4317 144.176 29.7697 144.176 25.2525C144.176 20.7352 147.838 17.0732 152.356 17.0732C153.672 17.0732 154.915 17.3841 156.017 17.9364C156.491 17.4067 157.18 17.0732 157.946 17.0732C159.376 17.0732 160.535 18.2321 160.535 19.6616V25.2355C160.535 25.2412 160.535 25.2468 160.535 25.2525C160.535 25.2581 160.535 25.2638 160.535 25.2694V30.8434C160.535 32.2729 159.376 33.4317 157.946 33.4317C157.18 33.4317 156.491 33.0983 156.017 32.5685Z" fill="black"/>
<path d="M164.935 30.8434V25.2784M164.935 25.2784V19.6616M164.935 25.2784C164.935 25.2784 164.935 19.6616 170.164 19.6616C170.164 19.6616 173.127 19.6616 174.305 22.25" stroke="black" stroke-width="5.17673" stroke-linecap="round" stroke-linejoin="round"/>
<path d="M90.7528 21.7323C89.885 20.7377 88.6588 19.6629 86.5597 19.6616C83.4648 19.6597 80.9545 22.1835 80.9688 25.2784C80.9831 28.359 83.479 30.8453 86.5597 30.8434C88.6588 30.842 89.885 29.7673 90.7528 28.7727" stroke="black" stroke-width="5.17673" stroke-linecap="round" stroke-linejoin="round"/>
</svg>
