<svg width="195" height="47" viewBox="0 0 195 47" fill="none" xmlns="http://www.w3.org/2000/svg">
<path d="M5 33.928V23.691L20.8537 29.7089V12.4316L5 17.3754" stroke="#0094FF" stroke-width="5.17673" stroke-linecap="round" stroke-linejoin="round"/>
<path d="M35.8794 25.6964C35.8794 21.547 35.8794 15.0712 35.8794 15.0712M35.8794 25.6964C35.8841 28.7771 38.3787 31.2698 41.4618 31.2744C44.5496 31.2791 47.0565 28.7817 47.0611 25.6964C47.0658 22.6065 44.5542 20.0969 41.4618 20.1016C38.3741 20.1062 35.8747 22.6111 35.8794 25.6964Z" stroke="#0094FF" stroke-width="5.17673" stroke-linecap="round" stroke-linejoin="round"/>
<path d="M111.874 25.6964C111.874 21.547 111.874 15.0712 111.874 15.0712M111.874 25.6964C111.878 28.7771 114.373 31.2698 117.456 31.2744C120.544 31.2791 123.051 28.7817 123.055 25.6964C123.06 22.6065 120.548 20.0969 117.456 20.1016C114.368 20.1062 111.869 22.6111 111.874 25.6964Z" stroke="#0094FF" stroke-width="5.17673" stroke-linecap="round" stroke-linejoin="round"/>
<path d="M191 25.6964C191 21.547 191 15.0712 191 15.0712M191 25.6964C190.995 28.7771 188.501 31.2698 185.418 31.2744C182.33 31.2791 179.823 28.7817 179.818 25.6964C179.814 22.6065 182.325 20.0969 185.418 20.1016C188.505 20.1062 191.005 22.6111 191 25.6964Z" stroke="#0094FF" stroke-width="5.17673" stroke-linecap="round" stroke-linejoin="round"/>
<path d="M53.3247 15.0712V25.7094C53.3247 25.7094 53.3247 31.2744 58.9156 31.2744" stroke="#0094FF" stroke-width="5.17673" stroke-linecap="round" stroke-linejoin="round"/>
<path d="M97.6636 15.0712V24.1564M97.6636 24.1564V31.2744M97.6636 24.1564L105.61 20.0927M97.6636 24.1564L105.61 31.2744" stroke="#0094FF" stroke-width="5.17673" stroke-linecap="round" stroke-linejoin="round"/>
<path d="M69.1136 31.275C72.2013 31.275 74.7044 28.7719 74.7044 25.6841C74.7044 22.5964 72.2013 20.0933 69.1136 20.0933C66.0258 20.0933 63.5227 22.5964 63.5227 25.6841C63.5227 28.7719 66.0258 31.275 69.1136 31.275Z" stroke="#0094FF" stroke-width="5.17673"/>
<path d="M134.91 31.275C137.998 31.275 140.501 28.7719 140.501 25.6841C140.501 22.5964 137.998 20.0933 134.91 20.0933C131.822 20.0933 129.319 22.5964 129.319 25.6841C129.319 28.7719 131.822 31.275 134.91 31.275Z" stroke="#0094FF" stroke-width="5.17673"/>
<path fill-rule="evenodd" clip-rule="evenodd" d="M149.353 25.6841C149.353 24.0258 150.697 22.6816 152.356 22.6816C154.011 22.6816 155.353 24.0205 155.358 25.6741V25.6941C155.353 27.3477 154.011 28.6866 152.356 28.6866C150.697 28.6866 149.353 27.3423 149.353 25.6841ZM156.017 33.0001C154.915 33.5525 153.672 33.8633 152.356 33.8633C147.838 33.8633 144.176 30.2013 144.176 25.6841C144.176 21.1668 147.838 17.5048 152.356 17.5048C153.672 17.5048 154.915 17.8157 156.017 18.368C156.491 17.8383 157.18 17.5048 157.946 17.5048C159.376 17.5048 160.535 18.6637 160.535 20.0932V25.6671C160.535 25.6728 160.535 25.6784 160.535 25.6841C160.535 25.6897 160.535 25.6954 160.535 25.701V31.275C160.535 32.7045 159.376 33.8633 157.946 33.8633C157.18 33.8633 156.491 33.5299 156.017 33.0001Z" fill="#0094FF"/>
<path d="M164.935 31.2751V25.7101M164.935 25.7101V20.0933M164.935 25.7101C164.935 25.7101 164.935 20.0933 170.164 20.0933C170.164 20.0933 173.127 20.0933 174.305 22.6817" stroke="#0094FF" stroke-width="5.17673" stroke-linecap="round" stroke-linejoin="round"/>
<path d="M90.7528 22.164C89.885 21.1694 88.6588 20.0946 86.5597 20.0933C83.4648 20.0914 80.9545 22.6152 80.9688 25.7101C80.9831 28.7907 83.479 31.277 86.5597 31.2751C88.6588 31.2737 89.885 30.199 90.7528 29.2044" stroke="#0094FF" stroke-width="5.17673" stroke-linecap="round" stroke-linejoin="round"/>
</svg>
