<svg width="1104" height="1145" viewBox="0 0 1104 1145" fill="none" xmlns="http://www.w3.org/2000/svg">
<g opacity="0.1">
<path d="M568.715 553.123C564.721 549.078 562.941 543.563 561.247 538.61C559.511 533.54 557.864 529.046 554.32 526.068C550.342 522.841 548.458 517.198 548.77 511.074L548.776 510.967L548.793 510.86C548.975 509.762 549.235 508.104 550.023 506.504L550.188 506.185L550.208 506.149C551.571 503.761 553.731 502.392 555.801 501.8C557.854 501.213 560.048 501.32 561.637 502.193L561.67 502.211L561.704 502.233C563.096 503.118 564.112 504.407 564.981 505.575C565.891 506.796 566.629 507.86 567.577 508.703C568.922 509.876 570.795 510.561 573.059 510.995C575.331 511.431 577.802 511.585 580.337 511.828C582.815 512.066 585.349 512.39 587.509 513.209C589.688 514.034 591.635 515.418 592.748 517.891L592.747 517.892C594.236 521.053 593.816 525.02 593.325 528.476C593.065 530.305 592.78 532.001 592.609 533.672C592.44 535.324 592.403 536.791 592.606 538.06L592.667 538.404C593.005 540.104 593.77 541.575 594.744 543.143C595.734 544.737 597.033 546.554 597.944 548.596C600.077 552.919 599.796 559.633 595.032 564.636C591.788 568.077 588.676 569.51 585.719 569.387C582.81 569.266 580.301 567.648 578.184 565.594C576.063 563.537 574.217 560.926 572.649 558.602C571.024 556.195 569.772 554.224 568.715 553.123Z" stroke="#45505C" stroke-width="3" stroke-miterlimit="10"/>
<path d="M538.298 541.868L538.297 541.866C537.001 539.319 536.683 536.092 536.422 533.243C536.163 530.424 535.955 527.94 535.224 525.954L535.071 525.564L535.038 525.484L535.013 525.399C534.832 524.795 534.645 524.461 534.253 524.031C528.856 518.533 527.075 510.233 528.215 501.666C528.482 499.246 529.166 496.749 530.638 494.151C530.665 494.044 530.708 493.896 530.783 493.737C530.904 493.483 531.052 493.302 531.178 493.178L531.178 493.177C533.666 489.552 537.338 487.144 540.91 485.901C544.494 484.654 548.247 484.489 550.857 485.726C553.137 486.712 554.74 488.423 556.104 490.114C557.522 491.874 558.587 493.461 560.009 494.743L560.016 494.75L560.024 494.756C560.893 495.563 561.611 496.147 562.441 496.616L562.451 496.622L562.461 496.629C564.685 497.942 567.315 498.584 570.188 498.906C573.071 499.228 576.071 499.222 579.091 499.306C582.433 499.355 586.876 499.077 590.925 499.354C595.01 499.633 599.161 500.48 602.152 503.019L602.159 503.025C605.032 505.497 606.19 508.992 606.675 512.758L606.676 512.766L606.678 512.775C607.064 516.003 606.723 519.451 606.183 522.919C605.913 524.659 605.586 526.442 605.265 528.222C604.941 530.013 604.62 531.809 604.354 533.621L604.351 533.636L604.348 533.653C603.816 536.884 603.608 539.704 604.014 542.168L604.021 542.208L604.026 542.249C604.37 545.149 605.406 547.666 606.793 550.247C607.489 551.542 608.257 552.823 609.062 554.182C609.86 555.526 610.687 556.936 611.472 558.441L611.473 558.441C616.37 567.644 613.591 579.332 605.696 587.322C603.12 589.929 600.475 592.058 597.759 593.695L597.744 593.705L597.728 593.714C593.761 595.967 589.102 597.9 584.605 598.509C580.114 599.117 575.624 598.419 572.224 595.162L572.223 595.161C571.279 594.254 570.686 592.975 570.271 591.684C569.854 590.388 569.573 588.935 569.327 587.571C569.073 586.164 568.859 584.865 568.572 583.696C568.284 582.522 567.961 581.661 567.572 581.1C563.765 575.794 559.749 570.968 556.859 566.188L556.336 565.376C553.684 561.358 550.54 557.931 547.393 554.361C544.068 550.589 540.75 546.667 538.298 541.868Z" stroke="#45505C" stroke-width="3" stroke-miterlimit="10"/>
<path d="M516.557 548.793C515.597 547.194 515.234 545.2 515.136 543.173C515.039 541.14 515.204 538.916 515.414 536.751C515.629 534.534 515.885 532.421 516.017 530.391C516.14 528.497 516.139 526.841 515.916 525.484L515.868 525.217L515.866 525.203L515.863 525.191C515.691 524.221 515.42 523.516 515.008 523.014C507.508 515.266 505.668 503.648 507.403 492.317L507.406 492.295C507.957 488.949 508.918 485.475 511.179 481.719C511.243 481.422 511.361 481.186 511.467 481.021C511.577 480.851 511.71 480.709 511.816 480.608C515.321 475.524 520.56 471.979 525.691 470.059C530.852 468.129 536.198 467.733 539.801 469.378L539.801 469.38C543.041 470.753 545.276 473.113 547.245 475.504C549.261 477.954 550.916 480.306 553.185 482.172C554.293 483.034 555.602 483.921 556.926 484.52L556.935 484.524C564.231 487.902 573.485 487.261 581.967 487.058L581.967 487.056C586.703 486.9 593.214 486.128 599.258 486.386C605.316 486.644 611.419 487.928 615.479 492.212C619.436 496.276 620.324 501.849 620.384 507.18L620.385 507.187C620.418 511.536 619.665 516.052 618.722 520.578C617.763 525.185 616.637 529.681 615.798 534.372L615.796 534.387L615.793 534.402C614.988 538.532 614.849 542.369 615.139 545.861C615.566 549.869 616.933 553.356 618.761 556.87C619.678 558.632 620.697 560.377 621.765 562.199C622.827 564.011 623.935 565.898 624.993 567.894L624.996 567.898C632.571 582.304 627.53 598.616 616.428 609.69L616.411 609.707L616.393 609.724C612.536 613.345 608.474 616.888 604.158 619.272C598.526 622.485 591.431 626.007 584.547 627.631C577.69 629.249 570.739 629.055 565.732 624.353L565.723 624.345L565.714 624.335C564.428 623.082 563.793 621.081 563.424 619.064C563.048 617.01 562.898 614.63 562.773 612.352C562.645 610.024 562.543 607.799 562.284 605.864C562.036 604.017 561.672 602.682 561.164 601.864L561.06 601.707C558.166 597.682 555.251 594.083 552.439 590.373C549.824 586.923 547.342 583.431 545.238 579.611L544.823 578.842L544.82 578.835C541.613 572.717 536.559 568.386 531.2 563.959C525.921 559.598 520.32 555.126 516.558 548.792L516.557 548.793Z" stroke="#45505C" stroke-width="3" stroke-miterlimit="10"/>
<path d="M494.73 555.173C493.525 553.258 493.227 550.75 493.312 548.188C493.397 545.608 493.88 542.737 494.438 539.902C495.008 537.001 495.641 534.201 496.11 531.49C496.572 528.824 496.828 526.477 496.692 524.584C496.566 523.782 496.458 523.114 496.292 522.546C496.124 521.969 495.94 521.655 495.755 521.482L495.731 521.46L495.708 521.437C486.138 511.632 484.152 496.96 486.537 482.502C487.258 478.131 488.622 473.152 492.068 468.17L492.135 468.074C492.165 468.014 492.207 467.93 492.257 467.846C492.31 467.758 492.392 467.637 492.505 467.509C497.198 461.048 504.089 456.427 510.828 453.842C517.556 451.26 524.417 450.603 529.013 452.456C533.34 454.154 536.256 457.238 538.84 460.388C541.461 463.583 543.654 466.706 546.717 469.068C548.474 470.267 550.108 471.372 551.905 472.086L551.931 472.097L551.956 472.108C556.828 474.313 562.375 475.041 568.119 475.154C573.894 475.267 579.684 474.762 585.195 474.566C591.287 474.347 599.86 473.24 607.854 473.552C615.873 473.866 623.89 475.596 629.012 481.428L629.018 481.434C633.678 486.807 634.423 494.579 634.077 501.501L634.077 501.511C633.776 507.001 632.612 512.604 631.305 518.159C629.985 523.765 628.533 529.278 627.554 534.82L627.549 534.851L627.542 534.883C626.386 540.36 626.111 545.093 626.501 549.512L626.5 549.512C627.425 559.707 632.715 567.349 638.483 577.292C643.927 586.643 644.73 596.747 642.32 606.298C639.923 615.794 634.377 624.659 627.226 631.741L626.27 632.695C621.463 637.425 616.292 641.505 610.919 644.571L610.918 644.572C603.665 648.705 594.098 653.827 584.799 656.461C575.556 659.078 566.175 659.352 559.673 653.167C558.024 651.604 557.3 648.949 556.937 646.205C556.567 643.403 556.531 640.119 556.523 636.935C556.514 633.696 556.535 630.559 556.309 627.858C556.079 625.105 555.613 623.157 554.849 622.073C550.958 616.648 546.973 611.904 543.15 606.971C539.592 602.379 536.224 597.684 533.427 592.338L532.875 591.26L532.871 591.251C528.968 583.327 522.108 578.174 514.75 573.04C507.504 567.984 499.734 562.928 494.739 555.186L494.735 555.18L494.73 555.173Z" stroke="#45505C" stroke-width="3" stroke-miterlimit="10"/>
<path d="M473.067 562.231C471.573 560.047 471.326 557.028 471.583 553.924C471.843 550.787 472.646 547.237 473.555 543.699C474.484 540.085 475.504 536.555 476.308 533.152C477.105 529.777 477.62 526.798 477.576 524.431C477.422 522.257 477.179 521.204 476.476 520.437C464.823 508.418 462.587 490.579 465.715 473.189C466.587 467.905 468.253 461.908 472.544 455.729L472.681 455.531L472.789 455.445C472.793 455.437 472.799 455.427 472.806 455.413C472.825 455.381 472.857 455.324 472.895 455.263C472.942 455.189 473.02 455.073 473.132 454.947C478.991 446.903 487.497 441.108 495.811 437.842C504.118 434.579 512.515 433.733 518.092 435.981L518.092 435.983C523.394 438.072 526.936 441.893 530.118 445.78C533.345 449.721 536.127 453.607 540.076 456.409L540.085 456.414L540.092 456.42C542.228 457.986 544.381 459.237 546.701 460.084L546.722 460.092L546.743 460.1C552.873 462.613 559.854 463.372 567.016 463.393C574.197 463.413 581.404 462.696 588.098 462.316L588.107 462.316C595.522 461.947 606.184 460.396 616.184 460.696C626.199 460.996 636.159 463.136 642.27 470.565L642.27 470.563C647.989 477.463 648.511 487.242 647.763 495.777L647.762 495.791C647.133 502.434 645.559 509.135 643.855 515.814C642.141 522.536 640.302 529.214 639.053 536.005L639.046 536.04C637.685 542.749 637.268 548.38 637.757 553.736C638.883 565.861 644.949 575.281 652.042 587.207L652.042 587.205C658.999 598.869 659.958 611.4 656.896 623.205C653.848 634.953 646.846 645.894 637.996 654.595L637.988 654.603C631.603 660.781 624.849 666.484 617.54 670.492C608.544 675.511 596.473 682.256 584.761 685.93C573.114 689.584 561.347 690.355 553.365 682.703L553.358 682.698C551.414 680.808 550.629 677.507 550.292 674.021C549.948 670.462 550.038 666.267 550.156 662.169C550.275 658.016 550.423 653.962 550.235 650.491C550.043 646.951 549.512 644.413 548.529 643.029L548.525 643.024C543.816 636.324 538.812 630.527 533.993 624.396C529.203 618.303 524.662 611.954 521.076 604.336L521.071 604.326C516.533 594.519 507.882 588.582 498.517 582.776C489.292 577.058 479.335 571.454 473.067 562.231Z" stroke="#45505C" stroke-width="3" stroke-miterlimit="10"/>
<path d="M451.298 569.098C449.532 566.667 449.322 563.17 449.738 559.537C450.159 555.858 451.268 551.651 452.528 547.424C453.817 543.096 455.218 538.89 456.386 534.791C457.472 530.982 458.26 527.572 458.446 524.816L458.474 524.273L458.476 524.243L458.478 524.213C458.654 521.73 458.231 520.278 457.403 519.324C443.961 505.471 441.403 484.585 444.882 464.669L445.052 463.721L445.053 463.718C446.221 457.439 448.184 450.43 453.321 443.052L453.459 442.854L453.509 442.814C453.517 442.802 453.526 442.788 453.536 442.772C453.574 442.714 453.644 442.605 453.718 442.503C453.757 442.448 453.809 442.38 453.871 442.308C453.884 442.292 453.901 442.277 453.918 442.258C460.875 432.687 471.024 425.77 480.935 421.835C490.842 417.902 500.798 416.838 507.302 419.38C513.712 421.885 517.945 426.46 521.751 431.123C525.599 435.837 528.929 440.508 533.695 443.815L533.716 443.83C536.173 445.614 538.837 447.004 541.569 448.109C549.042 451.097 557.479 451.856 566.077 451.731C574.716 451.606 583.299 450.603 591.276 450.128C600.104 449.547 612.771 447.539 624.735 447.834C636.708 448.13 648.557 450.715 655.773 459.75L655.78 459.759C662.191 467.933 662.651 479.575 661.453 490.036L661.451 490.051C660.496 497.85 658.551 505.618 656.461 513.358C654.36 521.137 652.122 528.858 650.5 536.739L650.497 536.755C648.843 544.466 648.374 551.182 648.868 557.335L648.867 557.336C650.153 571.675 656.987 582.853 665.406 596.77L665.407 596.768C673.874 610.743 674.962 625.653 671.242 639.649C667.538 653.583 659.101 666.518 648.635 676.777L648.632 676.78C640.991 684.229 632.893 691.008 624.146 695.915C613.556 701.956 599.075 710.314 584.974 715.001C570.946 719.663 556.791 720.865 547.267 711.829L547.248 711.81C545.016 709.603 544.166 705.671 543.853 701.44C543.534 697.125 543.747 692.019 543.991 687.008C544.238 681.94 544.516 676.966 544.366 672.724C544.214 668.402 543.62 665.266 542.414 663.571C536.622 655.515 530.518 648.614 524.686 641.257C518.891 633.947 513.455 626.29 509.239 616.953C503.961 605.44 493.516 598.754 482.174 592.283C470.991 585.903 458.906 579.726 451.298 569.098L451.298 569.098Z" stroke="#45505C" stroke-width="3" stroke-miterlimit="10"/>
<path d="M429.189 575.377C427.281 572.686 427.184 568.729 427.796 564.587C428.418 560.378 429.844 555.523 431.452 550.611C433.091 545.606 434.874 540.664 436.375 535.89C437.773 531.442 438.827 527.428 439.161 524.171L439.218 523.53L439.219 523.52C439.455 520.569 439.047 518.684 438.101 517.749L438.092 517.74L438.084 517.731C422.38 501.616 419.803 477.252 424.178 453.922L424.183 453.897C425.649 446.616 427.908 438.591 433.892 430.013L434.029 429.817L434.154 429.716C434.161 429.706 434.17 429.692 434.182 429.675C434.252 429.565 434.41 429.312 434.669 429.06C442.771 418.069 454.551 410.035 466.053 405.434C477.562 400.831 489.084 399.549 496.568 402.481L496.568 402.482C503.903 405.285 508.775 410.518 513.204 415.91C517.677 421.355 521.622 426.84 527.266 430.746L527.276 430.752L527.285 430.76C530.091 432.782 533.349 434.467 536.569 435.688L536.575 435.69C545.356 439.072 555.214 439.932 565.217 439.752C575.242 439.572 585.26 438.355 594.48 437.638L594.487 437.638C604.643 436.906 619.36 434.484 633.295 434.797C647.23 435.111 660.97 438.139 669.166 448.752L669.167 448.754C676.643 458.45 676.732 472.221 675.137 484.273L675.136 484.279C673.929 493.195 671.546 502.034 669.008 510.817C666.458 519.639 663.762 528.377 661.845 537.269L661.841 537.283C659.894 545.998 659.375 553.787 659.97 560.902L659.971 560.905C661.31 577.283 669.045 590.08 678.816 606.03L678.82 606.037C688.718 622.382 689.897 639.695 685.502 655.894C681.125 672.027 671.252 686.957 659.167 698.776L659.151 698.792C650.318 707.197 640.728 715.172 630.542 720.979C618.313 727.949 601.317 737.936 584.756 743.658C568.281 749.35 551.695 751.015 540.705 740.527L540.706 740.527C538.098 738.069 537.129 733.541 536.81 728.581C536.485 723.527 536.813 717.514 537.184 711.587C537.558 705.602 537.975 699.702 537.873 694.679C537.769 689.567 537.125 685.819 535.692 683.81L535.689 683.806C529.075 674.47 521.921 666.462 515.084 657.89C508.284 649.364 501.889 640.38 497.041 629.319L497.041 629.32C491.118 615.896 478.831 608.375 465.471 601.211C452.285 594.14 438.024 587.415 429.203 575.397L429.196 575.387L429.189 575.377Z" stroke="#45505C" stroke-width="3" stroke-miterlimit="10"/>
<path d="M407.616 582.594C405.427 579.627 405.363 575.198 406.146 570.513C406.941 565.758 408.693 560.251 410.665 554.658C412.668 548.977 414.86 543.304 416.695 537.861C418.409 532.778 419.714 528.168 420.146 524.415L420.22 523.675L420.224 523.636L420.229 523.597C420.64 520.375 420.171 518.236 418.961 516.917C401.445 498.868 398.583 471.783 403.237 446.012L403.463 444.786L403.466 444.773C405.074 436.623 407.67 427.297 414.416 417.838C414.585 417.527 414.763 417.291 414.859 417.165C414.927 417.074 414.965 417.022 414.987 416.99L415.02 416.935L415.093 416.781L415.192 416.646C424.394 404.051 437.848 394.795 450.992 389.48C464.082 384.187 477.16 382.688 485.624 385.999L485.624 385.998C494.021 389.127 499.562 395.071 504.602 401.215C509.684 407.411 514.177 413.684 520.641 418.096C524.073 420.439 527.688 422.36 531.384 423.693L531.39 423.695L531.396 423.698C541.479 427.469 552.764 428.358 564.182 428.085C575.626 427.811 587.035 426.381 597.515 425.57L597.519 425.57C609.108 424.716 625.909 421.808 641.792 422.079C657.686 422.35 673.29 425.777 682.517 438.055L682.517 438.056C690.843 448.903 690.823 464.843 688.831 478.507L688.829 478.519C687.298 488.597 684.504 498.542 681.588 508.435C678.662 518.366 675.619 528.229 673.505 538.312L673.502 538.324C671.351 548.262 670.688 556.952 671.383 565.013L671.385 565.031C672.779 583.442 681.413 597.853 692.386 615.959C703.87 634.554 705.204 654.289 700.161 672.736C695.136 691.113 683.816 708.116 670.11 721.497L670.109 721.497C659.964 731.48 649.02 740.545 637.278 747.078C623.365 754.883 603.932 766.436 584.988 773.166C566.132 779.866 547.19 782 534.665 770.137L534.403 769.877C531.745 767.133 530.795 762.163 530.527 756.674C530.245 750.9 530.701 743.989 531.198 737.148C531.699 730.25 532.241 723.42 532.172 717.615C532.138 714.719 531.951 712.137 531.549 709.972C531.145 707.799 530.54 706.145 529.73 705.011L529.727 705.008C522.113 694.267 513.849 685.139 505.988 675.366C498.165 665.64 490.837 655.379 485.359 642.599L485.359 642.6C478.713 627.312 464.598 618.999 449.252 611.149C441.644 607.257 433.739 603.476 426.531 599.025C419.312 594.568 412.689 589.382 407.621 582.601L407.616 582.594Z" stroke="#45505C" stroke-width="3" stroke-miterlimit="10"/>
<path d="M385.837 589.449C383.414 586.294 383.404 581.439 384.354 576.257C385.319 570.989 387.38 564.839 389.7 558.559C392.054 552.19 394.635 545.79 396.814 539.657C398.986 533.547 400.639 528.017 401.118 523.621C401.505 519.708 401.148 517.304 399.799 515.988L399.785 515.975L399.772 515.962C380.168 495.731 377.02 465.519 382.382 436.827L382.644 435.462L382.648 435.441C384.553 426.283 387.447 415.941 395.038 405.285C395.207 404.973 395.386 404.737 395.482 404.61C395.55 404.519 395.588 404.466 395.61 404.434L395.644 404.38L395.719 404.22L395.821 404.081C406.244 389.988 421.333 379.681 436.056 373.747C450.737 367.831 465.34 366.154 474.796 369.702L474.805 369.706C484.098 373.285 490.262 379.96 495.906 386.849C501.591 393.788 506.675 400.826 513.962 405.746L513.967 405.749C517.715 408.307 521.725 410.179 526.079 411.83L526.079 411.831C537.458 415.987 550.199 416.871 563.05 416.453C575.933 416.033 588.752 414.317 600.434 413.322L600.438 413.322C613.443 412.254 632.275 408.936 650.132 409.225C667.99 409.514 685.472 413.387 695.752 427.167L695.755 427.171C704.976 439.632 704.913 457.419 702.367 472.86L702.368 472.86C700.588 484.044 697.459 495.036 694.176 505.977C690.881 516.954 687.438 527.857 684.95 539.029L684.946 539.05C682.355 550.103 681.641 559.868 682.339 568.716L682.34 568.715C684.036 589.241 693.538 605.588 705.753 625.531C718.666 646.495 720.091 668.632 714.374 689.28C708.678 709.853 695.926 728.851 680.603 743.792L679.531 744.844C668.436 755.675 656.501 765.422 643.726 772.625L643.725 772.624C628.093 781.422 606.146 794.603 584.76 802.353C563.466 810.069 542.137 812.627 528.153 799.313L528.152 799.311C526.563 797.795 525.52 795.592 524.84 793.031C524.159 790.468 523.817 787.45 523.687 784.179C523.427 777.648 524.008 769.826 524.631 762.07C525.258 754.257 525.93 746.507 525.901 739.929C525.886 736.647 525.696 733.717 525.256 731.26C524.813 728.793 524.136 726.906 523.21 725.612L523.209 725.609C514.691 713.637 505.379 703.41 496.53 692.403C487.723 681.447 479.479 669.836 473.372 655.345C466.128 638.217 450.218 629.082 432.884 620.544C424.288 616.311 415.348 612.22 407.196 607.384C399.032 602.541 391.547 596.89 385.837 589.449L385.837 589.449Z" stroke="#45505C" stroke-width="3" stroke-miterlimit="10"/>
<path d="M364.093 595.983C361.47 592.575 361.512 587.28 362.632 581.579C363.77 575.784 366.135 569 368.802 562.052C371.504 555.011 374.469 547.914 376.99 541.114C379.343 534.763 381.197 528.953 381.933 524.204L382.066 523.269L382.067 523.26L382.068 523.254C382.638 519.038 382.112 516.207 380.621 514.693L380.617 514.689C358.791 492.277 355.609 458.238 361.973 426.027L361.975 426.016C364.032 415.937 367.375 404.467 375.802 392.621C375.898 392.445 375.998 392.298 376.083 392.183C376.191 392.036 376.304 391.899 376.379 391.809C376.466 391.704 376.515 391.645 376.554 391.592C376.568 391.573 376.575 391.561 376.579 391.556L376.641 391.425L376.742 391.287C388.188 375.72 404.862 364.267 421.159 357.655C437.413 351.06 453.582 349.166 464.016 353.104C474.364 357.01 481.195 364.392 487.447 372.031C493.74 379.719 499.371 387.545 507.477 392.971C511.763 395.676 516.235 397.961 521.042 399.714C533.724 404.26 547.894 405.173 562.162 404.661C576.464 404.149 590.675 402.219 603.614 401.131L603.614 401.132C617.94 399.912 638.801 396.137 658.609 396.421C678.416 396.705 697.778 401.024 709.087 416.457L709.088 416.456C719.169 430.066 719 450.028 716.056 467.086C713.953 479.436 710.414 491.536 706.764 503.517C703.104 515.532 699.339 527.409 696.704 539.474L696.702 539.482L696.7 539.49C693.905 551.764 693.048 562.432 693.846 572.23L693.847 572.236C695.598 594.802 705.858 612.891 719.419 634.858L719.421 634.86C733.811 658.278 735.392 682.831 729.034 705.69C722.695 728.475 708.503 749.473 691.481 766.037L691.478 766.041C678.739 778.369 665.103 789.594 650.473 797.93L650.467 797.933C633.193 807.66 608.795 822.485 585.014 831.283C561.331 840.044 537.645 843.069 522.202 828.316C520.451 826.664 519.302 824.243 518.556 821.408C517.809 818.571 517.441 815.221 517.311 811.579C517.053 804.306 517.742 795.583 518.482 786.919C519.227 778.198 520.025 769.533 520.033 762.184C520.037 758.516 519.843 755.237 519.364 752.487C518.883 749.727 518.134 747.605 517.092 746.151L517.089 746.147C507.571 732.77 497.173 721.468 487.313 709.283C477.496 697.151 468.323 684.264 461.537 667.97L461.537 667.969C453.568 648.967 435.822 639.039 416.502 629.816C406.915 625.239 396.949 620.832 387.863 615.583C378.766 610.326 370.436 604.163 364.096 595.986L364.093 595.983Z" stroke="#45505C" stroke-width="3" stroke-miterlimit="10"/>
<path d="M342.362 602.526C339.495 598.895 339.575 593.151 340.859 586.914C342.164 580.571 344.84 573.115 347.859 565.462C350.914 557.715 354.272 549.88 357.127 542.395C359.883 535.168 362.046 528.575 362.845 523.268L362.918 522.758L362.92 522.753L362.92 522.753C363.591 517.924 363.106 514.78 361.395 512.915C337.855 488.669 334.309 452.115 340.839 417.577L341.158 415.933L341.158 415.93C343.368 404.93 347.016 392.423 356.312 379.362L356.487 379.105C356.657 378.867 356.812 378.68 356.934 378.534C357.096 378.338 357.199 378.213 357.311 378.039L357.341 377.991L357.374 377.948C369.967 360.941 388.288 348.36 406.189 341.076C424.046 333.811 441.779 331.7 453.193 336.028C464.515 340.322 472.008 348.405 478.886 356.777C485.806 365.2 492.028 373.791 500.962 379.727L500.991 379.748C505.538 382.959 510.49 385.361 515.814 387.241L515.825 387.245C529.781 392.328 545.399 393.313 561.099 392.693C576.83 392.072 592.454 389.855 606.593 388.583L606.603 388.583C622.294 387.3 645.279 383.13 667.093 383.424C688.912 383.718 710.2 388.45 722.488 405.456L722.489 405.458C733.461 420.685 733.248 442.497 729.749 461.321L729.749 461.322C727.322 474.837 723.347 487.999 719.276 501.061C715.194 514.161 711.02 527.148 708.113 540.467L708.112 540.474C705.118 553.952 704.21 565.707 705.012 576.295L705.011 576.303L705.012 576.311C706.671 601.023 717.827 620.723 732.74 644.725C748.665 670.304 750.374 697.232 743.355 722.313C736.357 747.319 720.719 770.391 702.076 788.519L702.074 788.519C688.243 801.984 673.355 814.479 657.016 823.664L653.378 825.727C634.744 836.346 609.625 851.326 585.078 860.5C558.988 870.25 532.924 873.69 515.95 857.554L515.947 857.551C514.059 855.746 512.823 853.097 512.027 849.979C511.23 846.859 510.849 843.169 510.73 839.149C510.494 831.12 511.305 821.485 512.172 811.906C513.044 802.269 513.973 792.685 514.02 784.563C514.044 780.509 513.846 776.881 513.33 773.838C512.811 770.783 511.988 768.427 510.83 766.811L510.823 766.802C500.431 752.052 488.956 739.597 478.082 726.178C467.249 712.81 457.121 698.6 449.706 680.59C441.087 659.657 421.505 648.937 400.18 639.042C389.594 634.13 378.589 629.42 368.558 623.766C358.516 618.105 349.331 611.439 342.361 602.526L342.362 602.526Z" stroke="#45505C" stroke-width="3" stroke-miterlimit="10"/>
<path d="M337.137 366.533C337.294 366.406 337.448 366.212 337.677 365.873L337.934 365.481L337.963 365.435L337.996 365.391C351.687 346.85 371.657 333.14 391.162 325.186C410.623 317.249 429.917 314.925 442.255 319.549C454.63 324.169 462.764 332.911 470.239 342.011C477.755 351.161 484.527 360.547 494.339 367.08L494.345 367.084L494.351 367.088C499.494 370.598 504.946 373.126 510.641 375.251L510.641 375.249C525.975 380.662 543.06 381.646 560.193 380.917C577.361 380.188 594.377 377.756 609.772 376.391L609.773 376.392C626.876 374.896 651.897 370.316 675.683 370.628C699.466 370.94 722.63 376.118 735.97 394.623L735.971 394.622C747.803 410.998 747.331 435.104 743.439 455.53C740.689 470.218 736.302 484.492 731.788 498.664C727.262 512.87 722.614 526.956 719.259 541.424L719.259 541.424C715.968 555.921 714.914 568.569 715.817 580.105L715.817 580.108C717.877 607.114 729.843 628.26 745.957 654.417L745.957 654.416C763.361 682.451 765.186 711.825 757.508 739.13C749.85 766.357 732.778 791.425 712.515 811.116C697.423 825.856 681.088 839.248 663.311 849.331L663.308 849.332C642.667 860.985 613.321 879.002 584.696 889.807C556.168 900.574 527.723 904.432 509.293 886.853L509.287 886.847C507.261 884.89 505.935 882.015 505.085 878.618C504.234 875.219 503.833 871.192 503.72 866.798C503.494 858.021 504.413 847.487 505.397 836.999C506.387 826.455 507.442 815.954 507.536 807.053C507.583 802.609 507.389 798.625 506.844 795.278C506.297 791.921 505.414 789.317 504.155 787.524C492.732 771.512 480.174 757.986 468.307 743.372C456.483 728.811 445.463 713.297 437.42 693.576L437.421 693.577C428.125 670.855 406.739 659.312 383.448 648.717C371.881 643.455 359.856 638.424 348.892 632.374C337.917 626.318 327.884 619.178 320.273 609.607L320.27 609.604C317.202 605.722 317.343 599.531 318.81 592.761C320.301 585.88 323.302 577.776 326.685 569.441C330.106 561.01 333.868 552.457 337.076 544.297C340.175 536.417 342.628 529.208 343.579 523.397L343.666 522.839L343.669 522.824L343.67 522.809C344.536 517.561 343.977 513.999 342.07 512.092L342.063 512.085L342.055 512.077C316.427 485.651 312.597 445.972 319.835 408.514L320.188 406.732L320.19 406.722C322.7 394.694 326.652 381.144 336.831 366.858L336.965 366.671L337.137 366.533Z" stroke="#45505C" stroke-width="3" stroke-miterlimit="10"/>
<path d="M317.812 353.676C318.022 353.507 318.227 353.218 318.609 352.625L318.641 352.576L318.675 352.529C333.587 332.489 355.165 317.681 376.24 309.085C397.27 300.506 418.087 298 431.473 302.948C444.776 307.866 453.575 317.316 461.687 327.17C469.838 337.071 477.221 347.262 487.85 354.303C493.521 357.955 499.345 360.723 505.529 362.963L505.528 362.964C522.135 368.91 540.665 369.963 559.227 369.127C577.824 368.289 596.253 365.571 612.847 364.023L612.851 364.022C631.277 362.374 658.326 357.338 684.063 357.645C709.797 357.953 734.842 363.576 749.211 383.735L749.211 383.736C762.095 401.616 761.421 427.706 757.131 449.749L757.13 449.75C754.056 465.603 749.299 480.954 744.443 496.211C739.578 511.498 734.619 526.678 731.066 542.34L731.067 542.34C727.577 558.038 726.52 571.48 727.377 584.118L727.377 584.118C729.493 613.158 742.214 636.042 759.673 664.221L759.673 664.22C778.66 694.504 780.615 726.252 772.263 755.759C763.933 785.187 745.387 812.284 723.501 833.537L723.5 833.538C707.019 849.653 689.433 864.313 670.097 875.124C647.766 887.617 615.981 907.202 584.967 919.016C554.05 930.793 523.253 935.11 503.293 916.155L503.291 916.154C501.115 914.082 499.693 911.005 498.784 907.348C497.874 903.688 497.45 899.339 497.34 894.579C497.119 885.069 498.144 873.629 499.239 862.223C500.339 850.759 501.511 839.326 501.635 829.639C501.697 824.803 501.496 820.464 500.91 816.818C500.323 813.162 499.365 810.318 497.989 808.362L496.832 806.74C484.839 790.056 471.651 775.799 459.172 760.445C446.333 744.649 434.36 727.816 425.689 706.383L425.688 706.381C415.741 681.722 392.515 669.388 367.219 658.122C354.652 652.524 341.588 647.188 329.679 640.734C317.759 634.273 306.871 626.629 298.632 616.323L298.629 616.319C295.386 612.231 295.592 605.624 297.232 598.347C298.899 590.95 302.2 582.208 305.922 573.193C309.683 564.084 313.824 554.81 317.364 545.972C320.889 537.171 323.682 529.122 324.712 522.705C325.536 516.929 325.119 513.242 323 510.983C295.298 482.372 291.435 439.631 299.141 399.227L299.518 397.305L299.518 397.296C302.229 384.055 306.631 369.369 317.502 354.006L317.638 353.816L317.812 353.676Z" stroke="#45505C" stroke-width="3" stroke-miterlimit="10"/>
<path d="M276.892 623.641C273.387 619.294 273.608 612.228 275.41 604.394C277.239 596.44 280.854 587.03 284.934 577.321C289.055 567.514 293.596 557.522 297.479 548.012C301.351 538.53 304.425 529.858 305.563 522.96C306.573 516.84 305.98 512.748 303.729 510.293C273.697 479.372 269.805 432.373 278.748 388.47L279.026 387.112C281.957 373.043 286.728 357.799 298.184 341.921C298.372 341.635 298.585 341.33 298.775 341.06C298.993 340.751 299.182 340.482 299.333 340.248L299.364 340.2L299.398 340.154C315.408 318.58 338.636 302.642 361.315 293.375C383.95 284.125 406.328 281.405 420.639 286.65C434.996 291.895 444.459 302.049 453.18 312.653C461.943 323.308 469.879 334.293 481.339 341.842L481.339 341.843C487.356 345.73 493.775 348.792 500.449 351.148C518.383 357.334 538.352 358.341 558.333 357.374C578.356 356.405 598.178 353.474 616.028 351.832C635.862 349.97 664.95 344.525 692.654 344.85C720.352 345.175 747.273 351.244 762.695 372.901L762.696 372.904C776.28 392.04 775.661 420.168 770.819 443.972L770.819 443.972C767.422 460.99 762.254 477.449 757.034 493.84C751.803 510.265 746.522 526.617 742.822 543.565L742.816 543.592C738.886 560.402 737.876 575.097 738.735 588.527L738.846 589.98C741.332 620.376 754.82 644.583 773.342 674.332L773.342 674.33C793.708 706.893 795.752 741.042 786.742 772.769C777.753 804.418 757.799 833.558 734.29 856.376L734.286 856.379C716.459 873.575 697.526 889.317 676.744 901.032C652.736 914.609 618.468 935.865 585.025 948.72C551.68 961.538 518.504 966.27 497.088 945.874L497.083 945.87C494.77 943.646 493.26 940.342 492.3 936.403C491.34 932.459 490.902 927.77 490.802 922.632C490.604 912.365 491.751 900.014 492.972 887.692C494.199 875.313 495.503 862.96 495.667 852.501C495.749 847.278 495.544 842.59 494.921 838.651C494.334 834.946 493.392 832.007 492.045 829.908L491.77 829.5C478.52 810.796 463.822 795.086 449.943 778.083C436.107 761.132 423.205 743.025 413.856 719.791L413.855 719.791C403.181 693.248 378.121 680.046 350.849 668.056C337.295 662.098 323.207 656.437 310.364 649.583C297.509 642.724 285.773 634.606 276.894 623.643L276.892 623.641Z" stroke="#45505C" stroke-width="3" stroke-miterlimit="10"/>
<path d="M255.003 630.294C251.327 625.743 251.609 618.266 253.583 609.925C255.588 601.453 259.504 591.405 263.923 581.016C268.384 570.531 273.303 559.818 277.518 549.63C281.72 539.471 285.078 530.162 286.364 522.75C287.432 516.26 286.895 511.646 284.448 509.16L284.441 509.154C252.293 476.02 248.141 425.838 257.83 378.982C260.888 363.631 265.889 346.894 278.564 329.301L278.587 329.271C278.817 328.965 279.015 328.686 279.228 328.383C279.439 328.085 279.665 327.762 279.934 327.407L279.934 327.407C297.09 304.398 321.936 287.289 346.192 277.306C370.404 267.341 394.322 264.359 409.613 269.993C424.946 275.627 435.036 286.515 444.363 297.866C453.731 309.267 462.255 321.014 474.61 329.01C480.826 332.942 487.165 336.089 493.833 338.503L495.172 338.976C514.459 345.641 535.882 346.72 557.278 345.659C578.709 344.597 599.911 341.407 618.957 339.583L618.957 339.584C640.193 337.509 671.34 331.577 701.017 331.883C730.686 332.188 759.486 338.702 775.936 362.012L775.936 362.014C790.572 382.651 789.753 412.761 784.514 438.182L784.514 438.183C780.793 456.375 775.188 473.901 769.487 491.334C763.775 508.799 757.97 526.16 753.772 544.165L753.771 544.166C749.64 562.19 748.486 577.787 749.447 592.168L749.446 592.168C751.77 625.47 766.25 651.894 786.312 683.961C808.231 718.918 810.47 755.451 800.837 789.373C791.226 823.216 769.835 854.356 744.63 878.796L744.63 878.797C725.702 897.139 705.272 914.083 683.044 926.699L683.042 926.701C657.387 941.211 620.645 964.064 584.778 977.923C566.834 984.856 549.021 989.576 532.846 989.86C516.661 990.143 502.033 985.983 490.587 975.055L490.357 974.831C488.013 972.475 486.468 969.042 485.478 964.958C484.455 960.739 483.998 955.713 483.906 950.198C483.722 939.179 484.995 925.911 486.353 912.667C487.716 899.365 489.164 886.081 489.379 874.84C489.487 869.226 489.285 864.183 488.627 859.948C487.968 855.7 486.868 852.382 485.257 850.102L483.922 848.234C470.07 829.022 454.815 812.646 440.402 794.96C425.57 776.759 411.753 757.303 401.776 732.359L401.232 731.041C389.586 703.587 363.126 689.848 334.357 677.378C319.827 671.08 304.723 665.105 290.942 657.846C277.149 650.581 264.552 641.968 255.008 630.301L255.002 630.295L255.003 630.294Z" stroke="#45505C" stroke-width="3" stroke-miterlimit="10"/>
<path d="M233.516 636.895C229.601 632.129 229.916 624.242 232.061 615.395C234.238 606.415 238.473 595.745 243.254 584.692C248.074 573.548 253.402 562.117 257.96 551.256C262.508 540.417 266.151 530.455 267.56 522.488L267.564 522.465L267.694 521.797C268.927 515.191 268.266 510.566 265.669 507.802C231.426 472.446 227.277 419.142 237.461 369.298L237.461 369.297C240.814 352.943 246.109 335.199 259.615 316.416C260.003 315.82 260.531 315.122 261.005 314.495C279.308 290.04 305.803 271.8 331.667 261.145C357.485 250.508 382.967 247.31 399.236 253.334L399.236 253.335C415.617 259.296 426.345 270.842 436.267 282.92C446.231 295.048 455.307 307.589 468.539 316.183L468.546 316.186L468.551 316.19C475.36 320.728 482.621 324.149 490.293 326.742L490.302 326.745C510.813 333.856 533.659 334.962 556.486 333.794C579.352 332.623 601.981 329.192 622.283 327.274C644.847 325.045 678.005 318.733 709.629 319.072C741.241 319.41 771.918 326.37 789.42 351.178L789.423 351.183C804.759 373.08 803.893 405.048 798.206 432.392L798.206 432.393C794.162 451.754 788.146 470.392 782.123 488.894C776.089 507.426 770.051 525.817 765.881 544.832L765.877 544.843L765.875 544.855C761.444 563.905 760.142 580.401 761.204 595.736L761.203 595.737C763.73 630.963 778.968 659.13 800.379 693.227L800.381 693.23C823.729 730.555 826.059 769.489 815.753 805.611C805.471 841.653 782.646 874.789 755.819 900.792L753.923 902.626C734.278 921.522 713.117 938.846 690.08 951.771C662.657 967.183 623.439 991.633 585.164 1006.52C566.015 1013.96 547.013 1019.05 529.758 1019.41C512.763 1019.76 497.382 1015.51 485.257 1004.3L484.683 1003.76C482.063 1001.28 480.357 997.565 479.279 993.096C478.2 988.62 477.724 983.278 477.639 977.406C477.469 965.671 478.861 951.52 480.342 937.379C481.829 923.18 483.407 908.986 483.662 896.977C483.789 890.979 483.583 885.589 482.888 881.06C482.19 876.519 481.018 872.964 479.29 870.52L477.864 868.53C463.082 848.057 446.776 830.634 431.386 811.809C415.544 792.432 400.798 771.701 390.192 745.046L390.192 745.044C378.189 714.769 349.503 699.999 318.274 686.66C302.744 680.027 286.601 673.746 271.875 666.083C257.137 658.413 243.688 649.296 233.516 636.895Z" stroke="#45505C" stroke-width="3" stroke-miterlimit="10"/>
<path d="M211.322 643.791C208.804 640.738 207.974 636.428 208.215 631.485C208.456 626.55 209.77 620.792 211.735 614.567C215.665 602.118 222.343 587.358 228.91 572.795C235.509 558.162 241.996 543.73 245.679 531.744C247.521 525.75 248.624 520.489 248.725 516.191C248.826 511.916 247.938 508.776 245.974 506.72L245.133 505.837C209.799 468.328 205.544 412.311 216.389 359.929L216.724 358.305C220.262 341.472 226.093 323.137 240.01 303.771C259.139 277.075 287.505 257.205 315.317 245.568C343.085 233.95 370.605 230.417 388.05 236.796C405.41 243.144 416.802 255.395 427.351 268.207C437.941 281.068 447.606 294.373 461.664 303.475L461.666 303.476C485.036 318.658 513.129 322.815 541.837 322.523C570.575 322.23 599.677 317.497 625.211 315.025L625.211 315.024C649.1 312.643 684.345 305.891 717.969 306.217C751.581 306.543 784.175 313.918 802.656 340.289C819.047 363.686 817.981 397.64 811.898 426.602L811.897 426.603C807.605 447.075 801.215 466.794 794.768 486.387C788.512 505.398 782.205 524.283 777.617 543.774L777.179 545.662C769.547 579.034 770.546 605.387 777.457 629.821C784.385 654.32 797.277 676.974 813.596 702.918L813.597 702.919C838.451 742.553 840.871 783.89 829.888 822.248C818.927 860.526 794.657 895.735 766.259 923.392L764.245 925.344C743.373 945.461 720.76 963.945 696.177 977.86L696.174 977.862C667.179 994.146 625.486 1020.19 584.77 1036.1C564.399 1044.05 544.183 1049.51 525.839 1049.92C507.77 1050.33 491.435 1045.84 478.587 1033.93L477.978 1033.36C475.23 1030.75 473.445 1026.82 472.324 1022.08C471.201 1017.34 470.716 1011.66 470.644 1005.42C470.501 992.935 472.011 977.867 473.613 962.8C475.22 947.675 476.92 932.545 477.207 919.75C477.35 913.358 477.138 907.612 476.403 902.784C475.665 897.944 474.418 894.148 472.572 891.541L471.056 889.428C455.343 867.686 437.997 849.146 421.641 829.108C404.803 808.479 389.143 786.4 377.909 758.036L377.908 758.035C365.178 725.875 334.621 710.268 301.395 696.221C284.868 689.234 267.697 682.632 252.043 674.563C236.377 666.488 222.098 656.882 211.323 643.791L211.322 643.791Z" stroke="#45505C" stroke-width="3" stroke-miterlimit="10"/>
</g>
</svg>
