<svg width="383" height="77" viewBox="0 0 383 77" fill="none" xmlns="http://www.w3.org/2000/svg">
<g opacity="0.7" clip-path="url(#clip0_262_1455)">
<path d="M7.14749 38.9726C10.9148 50.5536 39.066 56.619 54.5223 60.1183C96.9685 68.7165 141.763 70.6495 185.964 71.8492C219.172 72.4825 252.434 72.0659 285.488 69.8163C313.999 67.7167 345.248 65.9838 368.11 53.6363C378.147 48.0709 378.559 39.8392 369.399 33.6904C345.144 17.6604 282.338 11.5783 248.045 7.86237C210.296 4.11315 172.056 5.26292 134.074 6.84592C158.87 7.16253 183.667 8.16231 208.283 10.1452C218.811 11.145 229.804 12.6947 238.422 16.9272C230.397 15.7108 222.089 15.6775 213.91 15.2109C156.497 11.0284 96.0912 7.34582 40.5884 20.1766C28.461 23.4091 6.06377 28.7415 7.14749 38.9726ZM0 37.6729C2.16747 15.3275 80.9964 7.92904 108.632 7.07922C104.142 6.87925 99.6521 6.56264 95.1881 6.14606C102.645 4.7297 110.257 3.64658 117.972 3.01337C133.558 2.06357 149.22 1.79696 164.831 1.18042C191.692 0.213952 218.605 0.730512 245.312 2.96338C278.726 6.59597 402.117 17.0606 380.468 50.7869C375.98 56.4357 367.515 60.1683 359.103 63.151C338.513 70.4161 314.8 72.2158 291.86 74.0322C257.62 76.415 223.197 77.1648 188.776 76.4649C137.996 75.1485 85.9248 73.1324 38.0855 61.1515C22.7327 56.919 0.258032 50.0203 0 37.6729Z" fill="#FF6900"/>
</g>
<defs>
<clipPath id="clip0_262_1455">
<rect width="383" height="76" fill="white" transform="translate(0 0.71582)"/>
</clipPath>
</defs>
</svg>
